<svg id="visual" viewBox="0 0 900 600" width="900" height="600" xmlns="http://www.w3.org/2000/svg" xmlns:xlink="http://www.w3.org/1999/xlink" version="1.1"><rect x="0" y="0" width="900" height="600" fill="#F9F9F9"></rect><path d="M0 493L37.5 490.5C75 488 150 483 225 475.5C300 468 375 458 450 450.7C525 443.3 600 438.7 675 442.7C750 446.7 825 459.3 862.5 465.7L900 472L900 601L862.5 601C825 601 750 601 675 601C600 601 525 601 450 601C375 601 300 601 225 601C150 601 75 601 37.5 601L0 601Z" fill="#607d8b"></path><path d="M0 521L37.5 524.5C75 528 150 535 225 529.2C300 523.3 375 504.7 450 499C525 493.3 600 500.7 675 508.7C750 516.7 825 525.3 862.5 529.7L900 534L900 601L862.5 601C825 601 750 601 675 601C600 601 525 601 450 601C375 601 300 601 225 601C150 601 75 601 37.5 601L0 601Z" fill="#96a9b2"></path><path d="M0 563L37.5 563.3C75 563.7 150 564.3 225 566C300 567.7 375 570.3 450 567.5C525 564.7 600 556.3 675 557.5C750 558.7 825 569.3 862.5 574.7L900 580L900 601L862.5 601C825 601 750 601 675 601C600 601 525 601 450 601C375 601 300 601 225 601C150 601 75 601 37.5 601L0 601Z" fill="#cfd8dc"></path></svg>