<svg id="visual" viewBox="0 0 900 600" width="900" height="600" xmlns="http://www.w3.org/2000/svg" xmlns:xlink="http://www.w3.org/1999/xlink" version="1.1"><rect x="0" y="0" width="900" height="600" fill="#fff"></rect><path d="M0 89L25 84.5C50 80 100 71 150 63.7C200 56.3 250 50.7 300 51.5C350 52.3 400 59.7 450 59C500 58.3 550 49.7 600 52.5C650 55.3 700 69.7 750 71.5C800 73.3 850 62.7 875 57.3L900 52L900 0L875 0C850 0 800 0 750 0C700 0 650 0 600 0C550 0 500 0 450 0C400 0 350 0 300 0C250 0 200 0 150 0C100 0 50 0 25 0L0 0Z" fill="#F0F2F5" stroke-linecap="round" stroke-linejoin="miter"></path></svg>