<svg id="visual" viewBox="0 0 900 600" width="900" height="600" xmlns="http://www.w3.org/2000/svg" xmlns:xlink="http://www.w3.org/1999/xlink" version="1.1"><rect x="0" y="0" width="900" height="600" fill="#3e3e3e"></rect><path d="M0 505L37.5 488.2C75 471.3 150 437.7 225 436.2C300 434.7 375 465.3 450 467.5C525 469.7 600 443.3 675 426C750 408.7 825 400.3 862.5 396.2L900 392L900 601L862.5 601C825 601 750 601 675 601C600 601 525 601 450 601C375 601 300 601 225 601C150 601 75 601 37.5 601L0 601Z" fill="#393b3c"></path><path d="M0 441L37.5 448.7C75 456.3 150 471.7 225 482.7C300 493.7 375 500.3 450 501.7C525 503 600 499 675 482.5C750 466 825 437 862.5 422.5L900 408L900 601L862.5 601C825 601 750 601 675 601C600 601 525 601 450 601C375 601 300 601 225 601C150 601 75 601 37.5 601L0 601Z" fill="#505253"></path><path d="M0 525L37.5 521.7C75 518.3 150 511.7 225 499.7C300 487.7 375 470.3 450 464.8C525 459.3 600 465.7 675 474.8C750 484 825 496 862.5 502L900 508L900 601L862.5 601C825 601 750 601 675 601C600 601 525 601 450 601C375 601 300 601 225 601C150 601 75 601 37.5 601L0 601Z" fill="#686b6c"></path><path d="M0 527L37.5 516.2C75 505.3 150 483.7 225 487.3C300 491 375 520 450 532.5C525 545 600 541 675 526.3C750 511.7 825 486.3 862.5 473.7L900 461L900 601L862.5 601C825 601 750 601 675 601C600 601 525 601 450 601C375 601 300 601 225 601C150 601 75 601 37.5 601L0 601Z" fill="#828486"></path><path d="M0 559L37.5 559.3C75 559.7 150 560.3 225 555.5C300 550.7 375 540.3 450 526.3C525 512.3 600 494.7 675 496C750 497.3 825 517.7 862.5 527.8L900 538L900 601L862.5 601C825 601 750 601 675 601C600 601 525 601 450 601C375 601 300 601 225 601C150 601 75 601 37.5 601L0 601Z" fill="#9c9ea0"></path><path d="M0 528L37.5 525.3C75 522.7 150 517.3 225 521.8C300 526.3 375 540.7 450 547.5C525 554.3 600 553.7 675 551.8C750 550 825 547 862.5 545.5L900 544L900 601L862.5 601C825 601 750 601 675 601C600 601 525 601 450 601C375 601 300 601 225 601C150 601 75 601 37.5 601L0 601Z" fill="#b7b9bc"></path><path d="M0 536L37.5 538.3C75 540.7 150 545.3 225 553.3C300 561.3 375 572.7 450 571C525 569.3 600 554.7 675 549.5C750 544.3 825 548.7 862.5 550.8L900 553L900 601L862.5 601C825 601 750 601 675 601C600 601 525 601 450 601C375 601 300 601 225 601C150 601 75 601 37.5 601L0 601Z" fill="#d3d5d8"></path><path d="M0 557L37.5 561.7C75 566.3 150 575.7 225 579.7C300 583.7 375 582.3 450 578.7C525 575 600 569 675 569C750 569 825 575 862.5 578L900 581L900 601L862.5 601C825 601 750 601 675 601C600 601 525 601 450 601C375 601 300 601 225 601C150 601 75 601 37.5 601L0 601Z" fill="#f0f2f5"></path></svg>